<?xml version="1.0" encoding="utf-8"?>
<!-- Generator: Adobe Illustrator 16.0.0, SVG Export Plug-In . SVG Version: 6.00 Build 0)  -->
<!DOCTYPE svg PUBLIC "-//W3C//DTD SVG 1.1//EN" "http://www.w3.org/Graphics/SVG/1.1/DTD/svg11.dtd">
<svg version="1.1" id="Layer_1" xmlns="http://www.w3.org/2000/svg" xmlns:xlink="http://www.w3.org/1999/xlink" x="0px" y="0px"
	 width="20px" height="21px" viewBox="-7 9 20 21" enable-background="new -7 9 20 21" xml:space="preserve">
<title>ic-like</title>
<desc>Created with Sketch.</desc>
<g>
	<path fill="#FFFFFF" d="M3,29.334c-5.423,0-9.834-4.412-9.834-9.834S-2.423,9.666,3,9.666c5.422,0,9.834,4.412,9.834,9.834
		S8.422,29.334,3,29.334z M3,11.633c-4.338,0-7.868,3.529-7.868,7.867S-1.338,27.367,3,27.367c4.338,0,7.867-3.529,7.867-7.867
		S7.338,11.633,3,11.633z"/>
</g>
<g>
	<path fill="#FFFFFF" d="M1.274,21.311c0-0.466,0.076-0.888,0.229-1.258c0.153-0.373,0.468-0.697,0.946-0.975
		c0.143-0.086,0.318-0.184,0.529-0.294c0.21-0.109,0.415-0.239,0.615-0.394c0.201-0.153,0.37-0.331,0.509-0.536
		c0.138-0.205,0.207-0.442,0.207-0.71c0-0.201-0.038-0.376-0.114-0.529c-0.077-0.151-0.177-0.282-0.301-0.387
		c-0.124-0.105-0.27-0.185-0.437-0.235c-0.167-0.054-0.336-0.079-0.508-0.079c-0.211,0-0.401,0.034-0.573,0.106
		s-0.327,0.164-0.465,0.273c-0.139,0.109-0.263,0.232-0.373,0.372c-0.109,0.138-0.202,0.269-0.278,0.395L0.015,16.2
		c0.124-0.296,0.289-0.559,0.493-0.787c0.206-0.229,0.439-0.422,0.702-0.58c0.263-0.156,0.546-0.277,0.852-0.357
		c0.306-0.081,0.621-0.123,0.945-0.123c0.362,0,0.721,0.054,1.073,0.158c0.354,0.105,0.671,0.272,0.952,0.501
		c0.282,0.229,0.511,0.522,0.688,0.881c0.177,0.356,0.266,0.785,0.266,1.282c0,0.305-0.036,0.575-0.108,0.809
		c-0.071,0.232-0.174,0.444-0.308,0.636s-0.291,0.363-0.473,0.515c-0.181,0.154-0.386,0.301-0.615,0.445
		C4.29,19.693,4.1,19.803,3.908,19.908c-0.19,0.104-0.364,0.221-0.522,0.352C3.229,20.388,3.1,20.537,3,20.702
		c-0.101,0.168-0.15,0.371-0.15,0.608H1.274z M1.303,24.647v-1.976h1.59v1.976H1.303z"/>
</g>
</svg>
