<?xml version="1.0" encoding="UTF-8"?>
<svg width="12px" height="11px" viewBox="0 0 12 11" version="1.1" xmlns="http://www.w3.org/2000/svg" xmlns:xlink="http://www.w3.org/1999/xlink">
    <!-- Generator: Sketch 40.3 (33839) - http://www.bohemiancoding.com/sketch -->
    <title>ic-like</title>
    <desc>Created with Sketch.</desc>
    <defs></defs>
    <g id="Page-1" stroke="none" stroke-width="1" fill="none" fill-rule="evenodd">
        <g id="Artboard" transform="translate(-494.000000, -457.000000)" fill="#FFFFFF">
            <g id="Group-11" transform="translate(494.000000, 456.000000)">
                <g id="Group-7">
                    <path d="M3.91972073,2.28184641 C3.22560666,2.28184641 2.53437606,2.54888729 2.00942527,3.07367789 C1.03945974,4.04364343 1.04827032,5.62362197 2.03073087,6.91605499 C4.45428307,10.1043661 5.61263498,10.4484596 5.9982183,10.4484596 C6.38348124,10.4484596 7.54119238,10.1043661 9.96458438,6.91605499 C10.9472051,5.62362197 10.9558555,4.04364343 9.98605018,3.07367789 C9.47615748,2.56394539 8.79822286,2.28312795 8.07719645,2.28312795 C7.45805247,2.28312795 6.8771945,2.48561126 6.39741799,2.8687917 L5.99805811,3.18757476 L5.59837784,2.86927228 C5.1043442,2.47583952 4.51099121,2.28184641 3.91972073,2.28184641 M5.9982183,11.7299995 C4.68976603,11.7299995 3.10498172,10.4468577 1.01062509,7.69170703 C-0.370714765,5.8748038 -0.332428759,3.60327427 1.10337654,2.16762916 C2.42015882,0.850846886 4.4472346,0.634587023 5.99677657,1.58613042 C6.6191244,1.2024694 7.3295781,1.00158802 8.07719645,1.00158802 C9.14055421,1.00158802 10.1403155,1.41568561 10.8922591,2.16762916 C12.3279042,3.60327427 12.36603,5.87496399 10.9848504,7.69170703 C8.89065392,10.4468577 7.3060298,11.7299995 5.9982183,11.7299995" id="ic-like"></path>
                </g>
            </g>
        </g>
    </g>
</svg>