<?xml version="1.0" encoding="UTF-8"?>
<svg width="26px" height="22px" viewBox="0 0 26 22" version="1.1" xmlns="http://www.w3.org/2000/svg" xmlns:xlink="http://www.w3.org/1999/xlink">
    <!-- Generator: Sketch 40.3 (33839) - http://www.bohemiancoding.com/sketch -->
    <title>ic-medium</title>
    <desc>Created with Sketch.</desc>
    <defs></defs>
    <g id="Page-1" stroke="none" stroke-width="1" fill="none" fill-rule="evenodd">
        <g id="Artboard-Copy-2" transform="translate(-1005.000000, -163.000000)" stroke="#484848" fill="#FFFFFF">
            <g id="Group-10" transform="translate(251.000000, 160.000000)">
                <g id="Group-4" transform="translate(629.000000, 2.000000)">
                    <g id="ic-medium" transform="translate(126.000000, 2.000000)">
                        <g id="Layer_1">
                            <g id="Group">
                                <path d="M23.3952181,20.3513939 L16.011663,16.8018902 L15.956045,0.71152117 C15.9547657,0.335901347 16.3468943,0.0883918851 16.6854151,0.251164536 L23.6853701,3.61724448 C23.8616056,3.70198129 23.9736946,3.88028801 23.9736946,4.0758345 L23.9736946,19.9876531 C23.9736337,20.2849934 23.6631351,20.4802353 23.3952181,20.3513939 L23.3952181,20.3513939 Z" id="Shape"></path>
                                <path d="M16.011663,16.8018902 L8.02045182,12.9596758 L15.7136526,0.293502483 C15.8495605,0.0697510051 16.1331334,-0.0143766264 16.3690684,0.0990525191 L23.4668576,3.51222201 C23.738186,3.64270817 23.8375431,3.9789141 23.6806794,4.23586584 L16.011663,16.8018902 L16.011663,16.8018902 Z" id="Shape"></path>
                                <path d="M16.011663,16.8018902 L8.02045182,12.9596758 L0.695743432,1.0320712 C0.491668439,0.699764014 0.846758927,0.306295243 1.19819434,0.475281521 L8.02045182,3.75589364 L16.011663,16.8018902 L16.011663,16.8018902 Z" id="Shape"></path>
                                <path d="M7.44197536,20.351333 L0.228685828,16.8826673 C0.0888792284,16.8154139 0,16.6740235 0,16.5189265 L0,0.520726281 C0,0.232828246 0.300751714,0.0436781403 0.560262004,0.168498935 L8.02045182,3.75589364 L8.02045182,19.9875922 C8.02045182,20.2849325 7.70989232,20.4801744 7.44197536,20.351333 L7.44197536,20.351333 Z" id="Shape"></path>
                            </g>
                        </g>
                    </g>
                </g>
            </g>
        </g>
    </g>
</svg>