<?xml version="1.0" encoding="utf-8"?>
<!-- Generator: Adobe Illustrator 16.0.0, SVG Export Plug-In . SVG Version: 6.00 Build 0)  -->
<!DOCTYPE svg PUBLIC "-//W3C//DTD SVG 1.1//EN" "http://www.w3.org/Graphics/SVG/1.1/DTD/svg11.dtd">
<svg version="1.1" id="Layer_1" xmlns="http://www.w3.org/2000/svg" xmlns:xlink="http://www.w3.org/1999/xlink" x="0px" y="0px"
	 width="20px" height="21px" viewBox="-7 9 20 21" enable-background="new -7 9 20 21" xml:space="preserve">
<title>ic-like</title>
<desc>Created with Sketch.</desc>
<path fill="#FFFFFF" d="M7.238,22.045H6.346L6.03,21.741c1.107-1.288,1.772-2.959,1.772-4.775c0-4.052-3.284-7.336-7.336-7.336
	c-4.051,0-7.336,3.284-7.336,7.336s3.285,7.336,7.336,7.336c1.817,0,3.488-0.665,4.775-1.771l0.304,0.316v0.892l5.644,5.632
	l1.682-1.682L7.238,22.045z M0.466,22.045c-2.811,0-5.079-2.269-5.079-5.079s2.268-5.079,5.079-5.079
	c2.811,0,5.079,2.269,5.079,5.079S3.277,22.045,0.466,22.045z"/>
</svg>
