<?xml version="1.0" encoding="UTF-8"?>
<svg width="26px" height="26px" viewBox="0 0 26 26" version="1.1" xmlns="http://www.w3.org/2000/svg" xmlns:xlink="http://www.w3.org/1999/xlink">
    <!-- Generator: Sketch 40.3 (33839) - http://www.bohemiancoding.com/sketch -->
    <title>ic-slack</title>
    <desc>Created with Sketch.</desc>
    <defs></defs>
    <g id="Page-1" stroke="none" stroke-width="1" fill="none" fill-rule="evenodd">
        <g id="Artboard-Copy-2" transform="translate(-879.000000, -161.000000)" stroke="#484848">
            <g id="Group-10" transform="translate(251.000000, 160.000000)">
                <g id="Group-4" transform="translate(629.000000, 2.000000)">
                    <g id="ic-slack">
                        <g id="Capa_1">
                            <path d="M23.4015,12.27675 C22.9365,11.23575 21.71475,10.7685 20.67375,11.2335 L19.68,11.679 L17.133,5.98575 L18.12675,5.54175 C19.16775,5.07525 19.63425,3.85425 19.1685,2.814 C18.7035,1.77225 17.4825,1.305 16.44075,1.7715 L15.44775,2.21625 L15.003,1.22175 C14.53725,0.18075 13.31625,-0.285 12.27525,0.18075 C11.23425,0.64575 10.7685,1.866 11.2335,2.9085 L11.67825,3.90225 L5.985,6.4485 L5.541,5.45475 C5.07525,4.41225 3.85425,3.948 2.81325,4.41225 C1.77225,4.878 1.3065,6.099 1.7715,7.14 L2.2155,8.133 L1.2225,8.5785 C0.1815,9.04425 -0.285,10.26375 0.18075,11.3055 C0.64575,12.3465 1.8675,12.813 2.9085,12.348 L3.90225,11.9025 L6.44775,17.5965 L5.454,18.0405 C4.413,18.50625 3.94725,19.728 4.41225,20.76825 C4.878,21.81 6.099,22.2765 7.14,21.8115 L8.133,21.36675 L8.57775,22.3605 C9.0435,23.40225 10.2645,23.868 11.3055,23.40225 C12.34575,22.93725 12.81225,21.71625 12.3465,20.67525 L11.90325,19.68075 L17.5965,17.13525 L18.0405,18.126 C18.50625,19.16925 19.7265,19.63575 20.76825,19.17 C21.80925,18.70575 22.27575,17.484 21.81,16.44225 L21.366,15.44925 L22.35825,15.00375 C23.40075,14.538 23.86725,13.31775 23.4015,12.27675 L23.4015,12.27675 Z M10.21725,15.91125 L7.671,10.2165 L13.36425,7.671 L15.9105,13.36425 L10.21725,15.91125 L10.21725,15.91125 Z" id="Shape"></path>
                        </g>
                    </g>
                </g>
            </g>
        </g>
    </g>
</svg>