<?xml version="1.0" encoding="UTF-8"?>
<svg width="97px" height="95px" viewBox="0 0 97 95" version="1.1" xmlns="http://www.w3.org/2000/svg" xmlns:xlink="http://www.w3.org/1999/xlink">
    <!-- Generator: Sketch 40.3 (33839) - http://www.bohemiancoding.com/sketch -->
    <title>Page 1</title>
    <desc>Created with Sketch.</desc>
    <defs>
        <polygon id="path-1" points="0.000273239437 94.3165468 94.1319423 94.3165468 94.1319423 0.135460432 0.000273239437 0.135460432 0.000273239437 94.3165468"></polygon>
    </defs>
    <g id="Page-1" stroke="none" stroke-width="1" fill="none" fill-rule="evenodd">
        <g id="Artboard" transform="translate(-250.000000, -116.000000)">
            <g id="Page-1" transform="translate(250.000000, 116.000000)">
                <path d="M92.7660183,47.7742698 C92.7660183,73.0265 72.3051662,93.4979748 47.0660394,93.4979748 C21.8262296,93.4979748 1.36606056,73.0265 1.36606056,47.7742698 C1.36606056,22.5220396 21.8262296,2.05056475 47.0660394,2.05056475 C72.3051662,2.05056475 92.7660183,22.5220396 92.7660183,47.7742698" id="Fill-1" fill="#2AB6DB"></path>
                <path d="M61.411588,61.147946 C59.9258486,61.147946 58.4906585,61.3639173 57.1326585,61.7596367 C54.3312711,58.2781259 50.0386796,56.048018 45.2235176,56.048018 C40.2799331,56.048018 35.8876092,58.3977302 33.0937359,62.0398525 C31.4850387,61.4637014 29.7520176,61.147946 27.9452218,61.147946 C19.5041725,61.147946 12.6608908,67.9947806 12.6608908,76.4402122 C12.6608908,76.9452842 12.6868486,77.444205 12.7346655,77.9369748 C17.9672007,83.8939532 24.7196303,88.4730899 32.3901444,91.0749964 C35.4797993,90.1359317 38.1548134,88.2434496 40.0743204,85.7406439 C41.6837007,86.316795 43.4160387,86.6325504 45.2235176,86.6325504 C46.709257,86.6325504 48.1437641,86.4165791 49.5024472,86.0208597 C52.0087359,89.1360396 55.7111303,91.2438094 59.9115035,91.6538813 C65.2396725,90.0949245 70.168912,87.6003201 74.4970246,84.3450324 C75.8925951,82.0383777 76.695919,79.3332698 76.695919,76.4402122 C76.695919,67.9947806 69.8526373,61.147946 61.411588,61.147946" id="Fill-3" fill="#BBDEFB"></path>
                <path d="M49.8715254,84.8451151 L50.2998282,85.3775252 C52.6845254,88.3409784 56.0583493,90.1951871 59.8160746,90.612777 C64.8464127,89.1166978 69.5222225,86.7738201 73.7205465,83.6456547 C74.9972577,81.4681727 75.6714761,78.9804029 75.6714761,76.4400072 C75.6714761,68.572777 69.2742577,62.1729209 61.411793,62.1729209 C60.0633563,62.1729209 58.7197014,62.3649712 57.4197648,62.7442878 L56.763307,62.9349712 L56.3350042,62.4025612 C53.6094408,59.0153669 49.5593493,57.0729928 45.2230394,57.0729928 C40.7569408,57.0729928 36.6330746,59.1110504 33.9068282,62.6636403 L33.4525676,63.2561942 L32.7496592,63.0046835 C31.2072225,62.4524532 29.5910113,62.1729209 27.9447437,62.1729209 C20.082962,62.1729209 13.6857437,68.572777 13.6857437,76.4400072 C13.6857437,76.7899353 13.6994056,77.1487482 13.7267296,77.5116619 C18.7987366,83.1986763 25.2444549,87.5071655 32.4040113,89.9956187 C35.1309408,89.0989281 37.4971944,87.4169496 39.2623211,85.116446 L39.7165817,84.5238921 L40.4194901,84.7754029 C43.2256592,85.7800791 46.3276099,85.8778129 49.2150676,85.0357986 L49.8715254,84.8451151 Z M60.0087085,92.6932086 L59.8119761,92.6740719 C55.6464408,92.2674173 51.8812014,90.3243597 49.1371944,87.1804748 C46.2647648,87.8912662 43.2290746,87.8010504 40.4276873,86.9385324 C38.3865887,89.370259 35.7245535,91.1328849 32.6888634,92.0562302 L32.3732718,92.1512302 L32.0617789,92.0459784 C24.330469,89.4235683 17.381307,84.7788201 11.9650183,78.6140719 L11.7464268,78.365295 L11.7150042,78.0351871 C11.6624056,77.4966259 11.6364479,76.9601151 11.6364479,76.4400072 C11.6364479,67.4423453 18.9524338,60.1225612 27.9447437,60.1225612 C29.5800817,60.1225612 31.1901451,60.3645036 32.741462,60.8422374 C35.852293,57.1345036 40.3607437,55.0226331 45.2230394,55.0226331 C49.9575958,55.0226331 54.393638,57.0470216 57.497638,60.600295 C58.7798141,60.2831727 60.0934127,60.1225612 61.411793,60.1225612 C70.4047859,60.1225612 77.7207718,67.4423453 77.7207718,76.4400072 C77.7207718,79.4205468 76.9092507,82.3375252 75.3736451,84.8758705 L75.2711803,85.0453669 L75.1127014,85.1649712 C70.6213282,88.5419137 65.603969,91.0563381 60.1986099,92.6371655 L60.0087085,92.6932086 Z" id="Fill-5" fill="#18607F"></path>
                <path d="M65.5198113,68.7249137 C63.6488042,66.8160288 61.180769,65.4600576 58.3377127,65.0123957 C53.3879803,64.233259 48.6623042,66.3916043 45.9073676,70.1881871 C43.9946915,69.0516043 41.8436141,68.244446 39.5121986,67.8774317 C32.7775296,66.8173957 26.3290789,69.6339065 22.4320014,74.6730072 C21.722262,73.9464964 20.9469451,73.2814964 20.1176634,72.6814245 L14.9206493,76.2572518 C15.0258465,76.3618201 15.133093,76.4643381 15.2389732,76.5689065 C15.8564944,77.1805971 16.4931423,77.7738345 17.1461845,78.3506691 C17.3251563,78.5078633 17.4993465,78.6698417 17.6803676,78.8249856 C17.960438,79.0648777 18.2493887,79.2952014 18.5362901,79.528259 C18.7842549,79.7298777 19.0308535,79.9335468 19.2829169,80.1303813 C19.5602549,80.3463525 19.8423746,80.5554892 20.1251775,80.7659928 C20.3997831,80.9696619 20.6750718,81.171964 20.9544592,81.3701655 C21.230431,81.5656331 21.5098183,81.7583669 21.7905718,81.9483669 C22.0911352,82.1513525 22.3951141,82.349554 22.7011423,82.545705 C22.9736986,82.7199856 23.2455718,82.8942662 23.5215437,83.0630791 C23.8617268,83.2715324 24.2080577,83.4717842 24.5543887,83.6713525 C24.8064521,83.8162446 25.0551,83.964554 25.3098958,84.1046619 C25.7983113,84.373259 26.2942408,84.6309209 26.794269,84.8824317 C26.9595789,84.9658129 27.1228394,85.0505612 27.2895155,85.1318921 C27.8626352,85.4114245 28.4425859,85.6800216 29.0293676,85.9363165 C29.2582056,86.0361007 29.4911423,86.127 29.7213465,86.2233669 C30.1455507,86.4003813 30.570438,86.5746619 31.0014732,86.7386906 C31.2624169,86.8384748 31.526093,86.9327914 31.789769,87.0277914 C32.2023606,87.1761007 32.6163183,87.3209928 33.0350577,87.4576835 C33.3055648,87.5472158 33.5781211,87.6333309 33.8513606,87.7173957 C34.2782972,87.8486187 34.7086493,87.9730072 35.1410507,88.0919281 C35.4074592,88.165741 35.6738676,88.2402374 35.9423254,88.3092662 C36.4150296,88.4302374 36.8931986,88.5402734 37.3727338,88.6468921 C37.6049873,88.6988345 37.8351915,88.7555612 38.0688113,88.8034029 C38.7833324,88.9510288 39.5033183,89.0856691 40.2315014,89.2004892 C40.9200648,89.3084748 41.607262,89.3945899 42.2937761,89.4718201 C42.4474732,89.4889065 42.6011704,89.5066763 42.7548676,89.5223957 C43.381269,89.5859568 44.0069873,89.6351655 44.6306563,89.6734388 C44.8526634,89.6864245 45.0746704,89.6959928 45.2959944,89.7055612 C45.7557197,89.7267482 46.2133958,89.7397338 46.6703887,89.7465683 C47.0638535,89.752036 47.4559521,89.7527194 47.8473676,89.7486187 C48.1861845,89.7452014 48.5243183,89.7383669 48.8610859,89.7274317 C49.2060507,89.7158129 49.5503324,89.7041942 49.893931,89.6850576 C55.7952197,89.3597338 61.4669873,87.8985108 66.6482901,85.4756691 C68.4530366,84.6247698 70.188107,83.6652014 71.8562338,82.6031151 C71.9368394,82.5518561 72.0188113,82.5033309 72.0994169,82.4513885 C72.5591423,82.1547698 73.0113535,81.844482 73.4608324,81.5314604 C73.5919873,81.4398777 73.7251915,81.3510288 73.8556634,81.2580791 C74.2703042,80.9621439 74.677431,80.6559568 75.0818254,80.3463525 C75.2396211,80.2260647 75.3987831,80.1071439 75.5552127,79.9841223 C75.9343324,79.6861367 76.3073042,79.3799496 76.6768606,79.0703453 C76.8510507,78.9240863 77.0259239,78.7785108 77.1980648,78.6302014 C77.5471282,78.3287986 77.8900437,78.0212446 78.2295437,77.7095899 C78.4146634,77.540777 78.5984169,77.3705971 78.7801211,77.1983669 C79.1025437,76.8928633 79.4195014,76.5825755 79.7330437,76.2681871 C79.922262,76.0775036 80.1101141,75.8854532 80.2966,75.692036 C80.594431,75.3817482 80.8888465,75.0687266 81.1777972,74.7502374 C81.3697479,74.5397338 81.5576,74.3258129 81.7454521,74.1105252 C82.0200577,73.7968201 82.2926141,73.4810647 82.5597056,73.1591583 C82.7502901,72.9288345 82.936093,72.6937266 83.1225789,72.4593022 C83.3760085,72.1408129 83.6280718,71.8223237 83.8733042,71.497 C84.0618394,71.2461727 84.2435437,70.9898777 84.4272972,70.7349496 C84.6588676,70.4144101 84.890438,70.0938705 85.1138113,69.7664964 C85.298931,69.494482 85.4765366,69.2163165 85.6561915,68.9402014 C85.8652197,68.618295 86.0776634,68.2977554 86.2791775,67.9696978 C86.4601986,67.6751295 86.6316563,67.3723597 86.8065296,67.0730072 C86.9936986,66.7524676 87.1849662,66.4346619 87.3646211,66.1086547 C87.5449592,65.7826475 87.7123183,65.4477554 87.8837761,65.1162806 C88.0449873,64.8059928 88.2130296,64.4998058 88.3674099,64.1854173 C88.6789028,63.5504892 88.9760507,62.9066763 89.2588535,62.2539784 C87.5524732,61.3559209 85.6753183,60.7134748 83.6642761,60.397036 C76.2738324,59.2337986 69.2269873,62.7378633 65.5198113,68.7249137 Z" id="Fill-7" fill="#18607F" opacity="0.3"></path>
                <path d="M49.6084641,93.4240935 C50.2375979,93.3892374 50.8626331,93.3407122 51.4849359,93.2812518 C51.7062599,93.2600647 51.9269007,93.234777 52.1475415,93.2101727 C52.6045345,93.1595971 53.0587951,93.1008201 53.5116894,93.0365755 C53.9010556,92.9812158 54.2883725,92.9203885 54.6743232,92.8554604 C55.0083585,92.7994173 55.3410275,92.7399568 55.6730134,92.6770791 C56.0111472,92.6121511 56.3499641,92.5465396 56.6860486,92.474777 C62.4650627,91.2349928 67.8410486,88.9098849 72.583119,85.7113237 C72.5851683,85.707223 72.5872176,85.7038058 72.5892669,85.699705 C74.2334852,84.589777 75.7984641,83.3725468 77.2814711,82.0637338 C77.3531965,82.0008561 77.4269711,81.9400288 77.4980134,81.8757842 C77.9065063,81.5108201 78.3047528,81.1349209 78.6995838,80.7556043 C78.8157106,80.6442014 78.9332035,80.5362158 79.047281,80.423446 C79.4113725,80.0673669 79.7659007,79.701036 80.1176965,79.3326547 C80.2543162,79.1891295 80.3936683,79.0469712 80.5289218,78.9013957 C80.8568092,78.5480504 81.1778655,78.1871871 81.4948232,77.8235899 C81.6444218,77.6527266 81.7947035,77.4818633 81.9415697,77.3082662 C82.2394007,76.9562878 82.5304007,76.5988417 82.8173021,76.2386619 C82.9737317,76.0425108 83.1287951,75.8463597 83.2818092,75.6474748 C83.5523162,75.2961799 83.8180415,74.9401007 84.0783021,74.5806043 C84.2360979,74.3632662 84.3918444,74.1438777 84.5455415,73.9238058 C84.791457,73.5718273 85.033957,73.2164317 85.2703092,72.8569353 C85.4267387,72.6184101 85.5790697,72.3778345 85.7314007,72.1365755 C85.9540908,71.7839137 86.1747317,71.4292014 86.3878585,71.069705 C86.5401894,70.8127266 86.6877387,70.5516475 86.835288,70.2905683 C87.036119,69.937223 87.2355838,69.5831942 87.4268514,69.2236978 C87.5744007,68.9462158 87.7144359,68.6653165 87.8565204,68.3851007 C88.0348092,68.0317554 88.2144641,67.679777 88.3838725,67.3216475 C88.5252739,67.0236619 88.6564289,66.7215755 88.7909993,66.4208561 C88.948112,66.0695612 89.107957,65.721 89.2561894,65.3656043 C89.3893937,65.0457482 89.5116683,64.7204245 89.6373585,64.3971511 C89.772612,64.0513237 89.9126472,63.7075468 90.0397035,63.3576187 C90.1667599,63.0076906 90.2794711,62.6509281 90.3983303,62.2968993 C90.5089923,61.9654245 90.6271683,61.6366835 90.7309993,61.3017914 C90.9400275,60.6265396 91.1340275,59.9437698 91.3116331,59.2555324 C89.4863937,58.6335899 87.5320486,58.2911799 85.4964148,58.2911799 C78.015119,58.2911799 71.5987739,62.848446 68.8663796,69.3392014 C66.72145,67.7440216 64.0730768,66.788554 61.1951824,66.788554 C56.1839711,66.788554 51.8510768,69.6556403 49.7198092,73.8349568 C47.6534359,73.0093453 45.4033092,72.5466475 43.0425204,72.5466475 C36.2251965,72.5466475 30.2931683,76.3316115 27.2260556,81.914741 C25.5599782,80.6729065 23.6712106,79.714705 21.6314782,79.1050647 C21.7701472,78.2029065 21.8425556,77.2788777 21.8425556,76.3377626 C21.8425556,66.370964 13.7676472,58.2911799 3.80602042,58.2911799 C3.40162606,58.2911799 3.00201338,58.3089496 2.6051331,58.3356043 C2.75268239,58.9595971 2.91321056,59.5788058 3.08603451,60.1925468 C3.08945,60.2048489 3.09286549,60.2178345 3.09628099,60.2301367 C4.13868944,63.9201007 5.63194296,67.4200647 7.51319648,70.6678345 C7.52959085,70.6965396 7.54598521,70.7259281 7.56306268,70.7546331 C7.85952746,71.2644892 8.16623873,71.7675108 8.48183028,72.2643813 C8.51530211,72.3163237 8.54809085,72.3675827 8.58156268,72.4195252 C8.89783732,72.9136619 9.22230915,73.4023309 9.55702746,73.8827986 C9.57342183,73.9053525 9.5898162,73.9279065 9.60552746,73.9504604 C10.9894852,75.9304245 12.5278232,77.7942014 14.2000486,79.5274388 C14.2676754,79.5971511 14.3332528,79.6689137 14.4008796,79.7386259 C14.7465275,80.0926547 15.1010556,80.4377986 15.4583162,80.7802086 C15.588788,80.9052806 15.7185768,81.031036 15.8504148,81.154741 C16.1871824,81.4704964 16.5294148,81.7801007 16.8757458,82.0856043 C17.0349077,82.2263957 17.196119,82.3651367 17.3573303,82.5031942 C17.6968303,82.7943453 18.0390627,83.0827626 18.3867599,83.3636619 C18.5582176,83.5024029 18.7330908,83.6370432 18.9065979,83.7730504 C19.2583937,84.048482 19.6101894,84.3245971 19.9694993,84.589777 C20.1163655,84.6977626 20.2673303,84.8002806 20.4148796,84.9068993 C21.1205204,85.414705 21.8411894,85.9020072 22.5762035,86.3701727 C22.7770345,86.4979784 22.97445,86.6305683 23.1773303,86.7556403 C23.4915556,86.9490576 23.812612,87.1315396 24.131619,87.3174388 C24.4082739,87.4780504 24.6828796,87.6407122 24.96295,87.7958561 C25.2703444,87.966036 25.5818373,88.1293813 25.8933303,88.2927266 C26.1966261,88.4512878 26.4999218,88.608482 26.8066331,88.7602086 C27.1099289,88.9112518 27.4152739,89.0575108 27.7226683,89.2017194 C28.0512387,89.3554964 28.3825415,89.5044892 28.7152106,89.6507482 C29.0109923,89.7806043 29.3067739,89.9104604 29.605288,90.0341655 C29.9741613,90.187259 30.3471331,90.3307842 30.720788,90.4743094 C30.9912951,90.5781942 31.2604359,90.6861799 31.5336754,90.7845971 C32.0582951,90.9745971 32.5883796,91.1516115 33.1211965,91.3224748 C33.2974359,91.378518 33.4723092,91.437295 33.6492317,91.4912878 C34.2585556,91.678554 34.8733444,91.853518 35.4929148,92.0154964 C35.7340486,92.0783741 35.9785979,92.1323669 36.2210979,92.1918273 C36.6671613,92.3004964 37.1145908,92.4064317 37.5654359,92.5021151 C37.8386754,92.5602086 38.1139641,92.6114676 38.3892528,92.664777 C38.8196049,92.7474748 39.2513232,92.8253885 39.6857739,92.8964676 C39.9672106,92.942259 40.2500134,92.9846331 40.5334993,93.0256403 C40.974781,93.088518 41.4194782,93.1445612 41.8648585,93.1951367 C42.1401472,93.2258921 42.4140697,93.2586978 42.6900415,93.2846691 C43.1764077,93.3311439 43.6655063,93.3653165 44.1559711,93.3960719 C44.3930063,93.4111079 44.6293585,93.4309281 44.8677599,93.4425468 C45.5966261,93.4767194 46.3289077,93.4979065 47.0659711,93.4979065 C47.7634148,93.4979065 48.4553937,93.4767194 49.1453232,93.4452806 C49.2997035,93.438446 49.4540838,93.4329784 49.6084641,93.4240935" id="Fill-9" fill="#E3F2FD"></path>
                <path d="M10.4452606,73.3632374 C11.7861831,75.2816906 13.2971972,77.1153957 14.9373169,78.8158273 L15.1326831,79.0201799 C15.4715,79.3680576 15.8185141,79.7056835 16.1675775,80.041259 L16.5507958,80.4069065 C16.8807324,80.7158273 17.2154507,81.0179137 17.5535845,81.3172662 C17.7086479,81.4532734 17.8657606,81.5885971 18.0235563,81.7239209 C18.3562254,82.0089209 18.6902606,82.2911871 19.0311268,82.5673022 C19.1424718,82.6568345 19.2572324,82.7463669 19.371993,82.8352158 L19.5393521,82.9664388 C19.8822676,83.2357194 20.2258662,83.5056835 20.577662,83.7653957 C20.6616831,83.8275899 20.7457042,83.8856835 20.8297254,83.9444604 L21.0114296,84.0729496 C21.6870141,84.5602518 22.3974366,85.0414029 23.1256197,85.5054676 L23.3694859,85.6619784 C23.4828803,85.7364748 23.5969577,85.8102878 23.7130845,85.8813669 C23.9603662,86.033777 24.2103803,86.1786691 24.4617606,86.3235612 L24.7957958,86.5176619 C25.0157535,86.6468345 25.2357113,86.7753237 25.4597676,86.8997122 C25.739838,87.0541727 26.024007,87.2031655 26.3081761,87.3521583 L26.3696549,87.384964 C26.6647535,87.5394245 26.9612183,87.6932014 27.2604155,87.8415108 C27.5589296,87.9891367 27.8560775,88.1319784 28.1559577,88.2720863 C28.4783803,88.4238129 28.802169,88.5693885 29.1273239,88.7122302 C29.4169577,88.840036 29.7059085,88.9664748 29.9982746,89.087446 C30.3575845,89.2371223 30.7230423,89.3772302 31.0885,89.5173381 L31.3207535,89.607554 C31.5065563,89.6793165 31.6930423,89.7517626 31.8822606,89.8201079 C32.3945845,90.0060072 32.9130563,90.1789209 33.4335775,90.3463669 L33.9472676,90.5110791 C34.5449789,90.6935612 35.1454225,90.8651079 35.751331,91.0236691 C35.9050282,91.0633094 36.0587254,91.0995324 36.2124225,91.1357554 L36.4624366,91.1952158 C36.9003028,91.3018345 37.3361197,91.4057194 37.7774014,91.4986691 C37.9843803,91.5430935 38.1920423,91.5827338 38.4003873,91.6230576 L38.5841408,91.6585971 C39.0042465,91.7392446 39.4257183,91.8151079 39.8506056,91.8848201 C40.1245282,91.9285612 40.4018662,91.9716187 40.6792042,92.011259 C41.1102394,92.0720863 41.5446901,92.1260791 41.9811901,92.1759712 L42.0788732,92.1875899 C42.3152254,92.2142446 42.5508944,92.2415827 42.7892958,92.2641367 C43.2626831,92.3092446 43.7415352,92.3427338 44.2210704,92.3728058 L44.4984085,92.3919424 C44.6377606,92.4015108 44.7771127,92.4117626 44.9171479,92.4185971 C45.6924648,92.4555036 46.3953732,92.4732734 47.065493,92.4732734 C47.6604718,92.4732734 48.3066831,92.4568705 49.0997606,92.4220144 L49.5519718,92.4001439 C50.1674437,92.3666547 50.7788169,92.3188129 51.3881408,92.2607194 C51.5951197,92.2402158 51.8061972,92.2169784 52.0165915,92.1930576 C52.4810986,92.1417986 52.9257958,92.0843885 53.3684437,92.0215108 C53.7475634,91.967518 54.126,91.9080576 54.5037535,91.8444964 C54.8316408,91.7891367 55.1567958,91.7317266 55.4799014,91.6695324 C55.8118873,91.6059712 56.1418239,91.5430935 56.4710775,91.4720144 C61.9877817,90.2889568 67.1574718,88.1032734 71.8407958,84.9751079 L71.8496761,84.9628058 L72.0170352,84.850036 C73.5943099,83.7845324 75.1374296,82.5884892 76.6040423,81.2947122 L76.8178521,81.1094964 C77.2147324,80.7547842 77.6040986,80.3864029 77.9907324,80.0159712 L78.3295493,79.6926978 C78.6861268,79.3427698 79.0324577,78.9853237 79.3760563,78.6244604 L79.4976479,78.498705 C79.5919155,78.4002878 79.6861831,78.3032374 79.7790845,78.2027698 C80.0994577,77.8576259 80.4123169,77.5056475 80.7231268,77.1495683 L80.8037324,77.0566187 C80.9232746,76.9199281 81.0421338,76.7839209 81.1589437,76.6458633 C81.4513099,76.3007194 81.7354789,75.9514748 82.0169155,75.5988129 C82.1692465,75.407446 82.3215775,75.2147122 82.4718592,75.0206115 C82.7348521,74.6782014 82.9937465,74.3303237 83.2492254,73.9783453 C83.4029225,73.7664748 83.5545704,73.5518705 83.7062183,73.3358993 C83.946669,72.9921223 84.182338,72.6449281 84.4132254,72.2943165 C84.5669225,72.0605755 84.7165211,71.8261511 84.8640704,71.5896763 C85.0833451,71.2431655 85.2985211,70.8973381 85.5075493,70.5460432 C85.6407535,70.3198201 85.7719085,70.0881295 85.9037465,69.8564388 L85.9440493,69.7846763 C86.1414648,69.4381655 86.3361479,69.0923381 86.5233169,68.7410432 C86.641493,68.5196043 86.7548873,68.2933813 86.8682817,68.0678417 L86.9816761,67.8436691 C87.1428873,67.5244964 87.3047817,67.2060072 87.4577958,66.8827338 C87.5616268,66.6647122 87.6586268,66.4453237 87.7563099,66.2259353 L87.9564577,65.7789568 C88.0766831,65.5103597 88.1969085,65.2410791 88.3109859,64.9690647 C88.4032042,64.7476259 88.4913239,64.520036 88.5794437,64.2931295 L88.7946197,63.7408993 C88.8909366,63.4975899 88.9872535,63.2556475 89.0760563,63.0089209 C89.1628099,62.7683453 89.2434155,62.5257194 89.3240211,62.2817266 L89.5412465,61.6338129 C89.6136549,61.4233094 89.6860634,61.2134892 89.7516408,60.9995683 C89.8609366,60.6482734 89.9647676,60.2949281 90.0651831,59.9415827 C88.5767113,59.5267266 87.0445211,59.316223 85.4966197,59.316223 C78.632162,59.316223 72.4753944,63.4066906 69.8113099,69.7368345 L69.3044507,70.9417626 L68.2558944,70.1619424 C66.188838,68.6255396 63.7474437,67.8135971 61.1953873,67.8135971 C56.7210915,67.8135971 52.6730493,70.2993165 50.6319507,74.3002518 L50.2070634,75.1333813 L49.3395282,74.7868705 C47.3202887,73.9803957 45.202,73.5716906 43.0427254,73.5716906 C36.8347254,73.5716906 31.1185563,76.9582014 28.1245352,82.408741 L27.5582465,83.4400719 L26.6142042,82.737482 C25.0212183,81.5496403 23.2458451,80.6584173 21.3379507,80.0877338 L20.4827113,79.8314388 L20.619331,78.9491007 C20.751169,78.0879496 20.8187958,77.2097122 20.8187958,76.3376259 C20.8187958,66.9866187 13.2418662,59.3722662 3.90869014,59.316223 C3.96197183,59.5164748 4.01661972,59.7160432 4.0726338,59.9149281 C5.08771831,63.5098921 6.53998592,66.9421942 8.39938028,70.153741 L8.44309859,70.2296043 C8.73819718,70.7360432 9.03807746,71.2281295 9.34683803,71.7140647 L9.41514789,71.8206835 C9.75328169,72.3489928 10.0709225,72.8267266 10.3988099,73.2969424 L9.60573239,73.9503237 L10.4452606,73.3632374 Z M47.065493,94.5236331 C46.3625845,94.5236331 45.6275704,94.5051799 44.8194648,94.466223 C44.6637183,94.458705 44.5086549,94.4484532 44.3542746,94.437518 L44.0926479,94.4197482 C43.5898873,94.3876259 43.0905423,94.3527698 42.5939296,94.3056115 C42.3418662,94.2810072 42.0939014,94.2523022 41.8459366,94.2242806 L41.7489366,94.2133453 C41.293993,94.1620863 40.8404155,94.1053597 40.3895704,94.0411151 C40.0985704,93.998741 39.8096197,93.955 39.5227183,93.9085252 C39.077338,93.8360791 38.6360563,93.7561151 38.1961408,93.6713669 L38.0130704,93.6365108 C37.7924296,93.5941367 37.5717887,93.5510791 37.3525141,93.5052878 C36.8921056,93.4068705 36.4344296,93.2988849 35.9788028,93.187482 L35.7438169,93.1321223 C35.5730423,93.0917986 35.4015845,93.0514748 35.2321761,93.0063669 C34.600993,92.8423381 33.9718592,92.6625899 33.3488732,92.471223 L32.8099085,92.2996763 C32.2627465,92.1240288 31.7217324,91.9429137 31.1855,91.7488129 C30.9812535,91.675 30.7804225,91.5970863 30.5782254,91.5178058 L30.3534859,91.4316906 C29.9716338,91.2847482 29.5904648,91.1378058 29.2133944,90.981295 C28.9066831,90.8541727 28.6047535,90.7215827 28.3028239,90.5889928 C27.9633239,90.4393165 27.6231408,90.2875899 27.2870563,90.1290288 C26.9741972,89.9834532 26.6606549,89.8330935 26.3498451,89.6779496 C26.0390352,89.5241727 25.7282254,89.3628777 25.4180986,89.2002158 L25.3559366,89.1680935 C25.0587887,89.0115827 24.7609577,88.8557554 24.4672254,88.6930935 C24.229507,88.5605036 23.9958873,88.4244964 23.7622676,88.2884892 L23.4357465,88.0984892 C23.1686549,87.9440288 22.9022465,87.7895683 22.6406197,87.6282734 C22.5101479,87.5489928 22.3817254,87.4649281 22.2526197,87.3815468 L22.0271972,87.2359712 C21.2648592,86.7507194 20.5209648,86.2470144 19.816007,85.7378417 L19.6534296,85.623705 C19.5557465,85.5546763 19.4566972,85.4856475 19.3610634,85.4145683 C18.9935563,85.1432374 18.6328803,84.8616547 18.2735704,84.578705 L18.1130423,84.4529496 C17.9894014,84.3565827 17.8657606,84.2602158 17.7448521,84.162482 C17.3869085,83.8733813 17.0378451,83.5788129 16.6915141,83.2821942 C16.5262042,83.1414029 16.3622606,82.9992446 16.1996831,82.8564029 C15.8437887,82.5426978 15.4947254,82.2255755 15.1497606,81.9023022 L14.750831,81.5223022 C14.3833239,81.1689568 14.0212817,80.816295 13.6688028,80.4554317 L13.4652394,80.2415108 C11.7479296,78.462482 10.1679225,76.5440288 8.76552113,74.5380935 L8.71633803,74.4690647 C8.37410563,73.9769784 8.04280282,73.4780576 7.71901408,72.9736691 L7.6138169,72.8089568 C7.29480986,72.3066187 6.98126761,71.7919784 6.67728873,71.2711871 L6.62605634,71.1816547 C4.68127465,67.822482 3.16206338,64.2316187 2.11077465,60.5088489 C1.92292254,59.842482 1.75829577,59.2089209 1.60733099,58.5705755 L1.32862676,57.3916187 L2.53839437,57.3123381 C2.9571338,57.285 3.37928873,57.2658633 3.80554225,57.2658633 C14.3163803,57.2658633 22.8680915,65.8213309 22.8680915,76.3376259 C22.8680915,77.022446 22.8312042,77.71 22.7574296,78.3927698 C24.2226761,78.9046763 25.6114155,79.5901799 26.9065704,80.4397122 C30.3849085,74.911259 36.4679014,71.5213309 43.0427254,71.5213309 C45.1616972,71.5213309 47.2451479,71.8719424 49.2493592,72.5656475 C51.756331,68.3473741 56.2538521,65.7632374 61.1953873,65.7632374 C63.7740845,65.7632374 66.2550986,66.4685612 68.440331,67.8135971 C71.6556761,61.3665827 78.2216197,57.2658633 85.4966197,57.2658633 C87.5896338,57.2658633 89.6566901,57.6082734 91.6417746,58.2848921 L92.5414155,58.5910791 L92.3036972,59.5103237 C92.1247254,60.2067626 91.9245775,60.9114029 91.7094014,61.6057914 C91.6376761,61.8381655 91.5591197,62.0684892 91.4805634,62.2988129 L91.2688028,62.926223 C91.1827324,63.1866187 91.0959789,63.4483813 91.0030775,63.7067266 C90.9067606,63.9725899 90.8036127,64.2336691 90.6997817,64.4954317 L90.4907535,65.0319424 C90.3964859,65.2752518 90.3022183,65.5178777 90.2024859,65.7584532 C90.0808944,66.0502878 89.9531549,66.3346043 89.8254155,66.6189209 L89.6286831,67.0583813 C89.5248521,67.2941727 89.4196549,67.5292806 89.308993,67.7616547 C89.1491479,68.1006475 88.9797394,68.4355396 88.8096479,68.7704317 L88.6989859,68.9905036 C88.5780775,69.2297122 88.457169,69.4696043 88.332162,69.7053957 C88.1354296,70.073777 87.9318662,70.4360072 87.7262535,70.797554 L87.6852676,70.8686331 C87.5486479,71.1105755 87.4113451,71.352518 87.2706268,71.5910432 C87.050669,71.9607914 86.8252465,72.323705 86.5977746,72.6838849 C86.4427113,72.9299281 86.2862817,73.1766547 86.1257535,73.4206475 C85.8853028,73.7876619 85.6366549,74.1505755 85.3852746,74.5114388 C85.228162,74.7369784 85.069,74.9597842 84.9084718,75.1819065 C84.6413803,75.5502878 84.3708732,75.9138849 84.0935352,76.2733813 C83.9357394,76.4777338 83.7786268,76.6773022 83.6194648,76.877554 C83.3243662,77.2466187 83.0272183,77.6129496 82.7218732,77.9717626 C82.5995986,78.1159712 82.4739085,78.2608633 82.3482183,78.4050719 L82.2676127,78.4973381 C81.9424577,78.8698201 81.6152535,79.2382014 81.2798521,79.5990647 C81.1780704,79.7084173 81.0756056,79.8143525 80.9731408,79.9216547 L80.8570141,80.0419424 C80.4990704,80.4171583 80.1363451,80.7910072 79.7647394,81.1559712 L79.4115775,81.4935971 C79.0051338,81.8831655 78.5986901,82.2672662 78.1813169,82.6404317 L77.9620423,82.8311151 C76.4961127,84.1235252 74.9584577,85.3223022 73.3859648,86.3980576 L73.3798169,86.4103597 L73.1564437,86.5620863 C68.2101268,89.8973381 62.7412394,92.2244964 56.9007465,93.4772662 C56.5571479,93.5503957 56.2108169,93.6180576 55.8644859,93.6836691 C55.5263521,93.7485971 55.186169,93.808741 54.8439366,93.8661511 C54.4504718,93.9331295 54.0542746,93.9946403 53.6560282,94.0520504 C53.1922042,94.1169784 52.7276972,94.1771223 52.2604577,94.2290647 C52.0247887,94.255036 51.8068803,94.2796403 51.5869225,94.3015108 C50.9468592,94.3630216 50.3074789,94.4129137 49.6653662,94.4484532 L49.1940282,94.4696403 C48.3667958,94.5065468 47.6912113,94.5236331 47.065493,94.5236331 L47.065493,94.5236331 Z" id="Fill-11" fill="#18607F"></path>
                <path d="M85.5818021,72.3705216 C83.9587599,71.8770683 82.2455486,71.5893345 80.4633444,71.5777158 C72.9820486,71.5271403 66.5349641,76.0420324 63.7595345,82.5143345 C61.6255345,80.9048022 58.9833092,79.9315647 56.1054148,79.9124281 C51.0942035,79.8789388 46.7428655,82.7173201 44.5829077,86.8816007 C42.5226824,86.0423201 40.275288,85.5645863 37.9151824,85.5488669 C33.9238373,85.5222122 30.2330556,86.8016367 27.2308373,88.9777518 C33.2304923,91.8742266 39.9583303,93.4981115 47.0659711,93.4981115 C63.2519923,93.4981115 77.4624923,85.0711331 85.5818021,72.3705216 Z" id="Fill-13" fill="#BBDEFB"></path>
                <g id="Group-17" transform="translate(0.000000, 0.548129)">
                    <mask id="mask-2" fill="white">
                        <use xlink:href="#path-1"></use>
                    </mask>
                    <g id="Clip-16"></g>
                    <path d="M47.0657662,2.86927338 C22.6204,2.86927338 2.73266761,22.7673309 2.73266761,47.2260719 C2.73266761,71.6848129 22.6204,91.5828705 47.0657662,91.5828705 C71.5118155,91.5828705 91.3995479,71.6848129 91.3995479,47.2260719 C91.3995479,22.7673309 71.5118155,2.86927338 47.0657662,2.86927338 M47.0657662,94.3166835 C21.1134845,94.3166835 0.000273239437,73.1918273 0.000273239437,47.2260719 C0.000273239437,21.2603165 21.1134845,0.135460432 47.0657662,0.135460432 C73.0180479,0.135460432 94.1319423,21.2603165 94.1319423,47.2260719 C94.1319423,73.1918273 73.0180479,94.3166835 47.0657662,94.3166835" id="Fill-15" fill="#18607F" mask="url(#mask-2)"></path>
                </g>
                <path d="M96.5082373,8.87388849 C96.506188,8.85133453 96.5096035,8.83083094 96.506188,8.80827698 C96.485012,8.69208993 96.4460754,8.57863669 96.3886951,8.46996763 C96.3791317,8.45083094 96.3668359,8.43306115 96.3559063,8.41460791 C96.353857,8.4118741 96.353857,8.40845683 96.3524908,8.40503957 C96.3511246,8.40298921 96.3477092,8.4016223 96.346343,8.39820504 C96.3381458,8.38521942 96.3313148,8.37086691 96.3231176,8.3592482 C96.2507092,8.2526295 96.1625894,8.16514748 96.0642232,8.08996763 C96.0423641,8.07356475 96.0164063,8.0639964 95.993181,8.04896043 C95.9064275,7.99155036 95.8148923,7.94439209 95.7165261,7.91295324 C95.6728077,7.89860072 95.6297725,7.89176619 95.5853711,7.88356475 C95.4999838,7.86579496 95.4145965,7.85759353 95.3251106,7.86032734 C95.2786599,7.86169424 95.2335754,7.8637446 95.1871246,7.87057914 C95.1563852,7.87536331 95.127012,7.87057914 95.0969556,7.87809712 L27.109519,21.9353633 C26.6258852,22.0365144 26.2556458,22.4288165 26.1866528,22.9188525 C26.1176599,23.4088885 26.3622092,23.8893561 26.7993923,24.1196799 L46.2799979,34.4008669 L49.6961739,53.3701115 C49.6941246,53.3837806 49.6975401,53.3995 49.6961739,53.4131691 C49.6845613,53.5068022 49.6831951,53.5983849 49.6948077,53.6913345 C49.7009556,53.7378094 49.7071035,53.7822338 49.7187162,53.8280252 C49.745357,53.9394281 49.7890754,54.0439964 49.8471387,54.1424137 C49.8594345,54.1608669 49.8594345,54.1834209 49.8717303,54.2018741 C49.8758289,54.2080252 49.8812937,54.2128094 49.8860754,54.2169101 C49.9011035,54.239464 49.9222796,54.2572338 49.9400401,54.2791043 C49.994688,54.3474496 50.0520683,54.4096439 50.1183289,54.4622698 C50.1285754,54.4704712 50.1354063,54.4834568 50.147019,54.4916583 C50.1647796,54.5039604 50.1845894,54.5080612 50.20235,54.5196799 C50.2740754,54.5661547 50.34785,54.6051115 50.4257232,54.6351835 C50.4578289,54.6474856 50.4872021,54.642018 50.5199908,54.6509029 C50.625188,54.6816583 50.7338007,54.6830252 50.8444627,54.6830252 L50.8478782,54.6830252 C50.8526599,54.6830252 50.8567585,54.7001115 50.8615401,54.7001115 C50.88135,54.7014784 50.901843,54.7124137 50.9216528,54.7124137 C51.2461246,54.7124137 51.5384908,54.5723058 51.7557162,54.3481331 L64.731857,45.6949317 L78.318688,54.5326655 C78.5106387,54.6563705 78.7333289,54.7212986 78.9567021,54.7212986 C79.0796599,54.7212986 79.20535,54.7021619 79.3255754,54.6618381 C79.6630261,54.5497518 79.9321669,54.2893561 80.0558077,53.954464 L96.4488077,9.4363705 C96.4638359,9.39673022 96.4768148,9.35572302 96.4870613,9.31334892 C96.491843,9.29557914 96.4932092,9.27849281 96.4966246,9.26208993 C96.5000401,9.24910432 96.5020894,9.2347518 96.5048218,9.22108273 C96.5096035,9.1923777 96.5178007,9.16435612 96.51985,9.13633453 C96.5280472,9.04953597 96.5184838,8.96205396 96.5082373,8.87388849" id="Fill-18" fill="#18607F" opacity="0.4"></path>
                <polygon id="Fill-20" fill="#FFFFFF" points="26.5044303 16.7041439 90.3864444 3.11504317 91.229388 3.67752518 75.6806979 46.7870216 61.1621204 38.2588921 47.0656979 47.1622374 43.3646697 26.919036 25.005712 17.4538921"></polygon>
                <polygon id="Fill-22" fill="#BBDEFB" points="47.0659711 46.1762878 43.7891472 27.5959281 80.8458796 8.9315036 81.3520556 10.5499209 52.1461754 32.1566115"></polygon>
                <polygon id="Fill-24" fill="#90CAF9" points="52.6120486 32.9330144 60.1295486 38.2707842 48.3078444 46.8242014"></polygon>
                <path d="M74.9498507,45.6180432 L56.9064845,33.8852014 L54.1740901,32.1075396 L89.4923366,6.12469784 L74.9498507,45.6180432 Z M83.716738,5.7672518 L43.925562,26.159446 L27.3638366,17.419446 L83.716738,5.7672518 Z M49.5904986,44.5518561 L52.7839845,34.0000216 L57.7542099,37.2334388 L59.1764211,38.1581511 L54.346231,41.3792662 L49.5904986,44.5518561 Z M79.5238789,10.5500576 L51.4212028,31.2224676 C51.3761183,31.2566403 51.339231,31.2990144 51.2996113,31.3386547 C51.2845831,31.3530072 51.2695549,31.3646259 51.2565761,31.3796619 C51.2319845,31.407 51.2094423,31.4336547 51.1875831,31.4630432 C51.166407,31.4910647 51.1500127,31.5204532 51.1308859,31.5498417 C51.0878507,31.6202374 51.0516465,31.6926835 51.0229563,31.7699137 C51.0174915,31.7849496 51.0079282,31.7972518 51.0031465,31.8122878 C51.0024634,31.8170719 50.9976817,31.8191223 50.9963155,31.8239065 L47.7755056,42.2971439 L45.2234493,28.1277914 L79.5238789,10.5500576 Z M93.0895338,3.06966187 C93.0936324,3.04164029 93.1018296,3.01361871 93.104562,2.98559712 C93.1127592,2.89879856 93.1031958,2.81063309 93.0929493,2.72315108 C93.0902169,2.70059712 93.0936324,2.67941007 93.0902169,2.65753957 C93.0690408,2.54135252 93.0307873,2.42721583 92.973407,2.31854676 C92.9638437,2.30009353 92.9508648,2.28232374 92.9406183,2.26318705 C92.9378859,2.26113669 92.9378859,2.25771942 92.9372028,2.25430216 C92.9358366,2.25156835 92.9324211,2.25088489 92.9310549,2.24678417 C92.9228577,2.23448201 92.9160268,2.2201295 92.9078296,2.20851079 C92.834738,2.10189209 92.7473014,2.01372662 92.6489352,1.93854676 C92.626393,1.92214388 92.6011183,1.91325899 92.5772099,1.89753957 C92.4904563,1.8401295 92.3996042,1.79365468 92.301238,1.76221583 C92.2575197,1.74786331 92.2144845,1.74102878 92.1700831,1.73282734 C92.0840127,1.71505755 91.9986254,1.70685612 91.9098225,1.70890647 C91.8626887,1.71027338 91.8182873,1.71300719 91.7718366,1.71984173 C91.7410972,1.7246259 91.7117239,1.71984173 91.6816676,1.72667626 L23.694231,15.7846259 C23.2105972,15.8850935 22.8403577,16.2780791 22.7713648,16.7674317 C22.7023718,17.2574676 22.9469211,17.7379353 23.3841042,17.9689424 L42.8640268,28.249446 L46.2808859,47.2186906 C46.2781535,47.2330432 46.2822521,47.2480791 46.2808859,47.2624317 C46.2692732,47.3560647 46.267907,47.4476475 46.2795197,47.5399137 C46.2856676,47.5870719 46.2911324,47.6314964 46.3027451,47.6772878 C46.330069,47.7886906 46.3731042,47.8925755 46.4318507,47.9909928 C46.4434634,48.0101295 46.4434634,48.032 46.4564423,48.0511367 C46.4598577,48.0566043 46.4660056,48.0613885 46.4707873,48.0661727 C46.4858155,48.0880432 46.5069915,48.1058129 46.5247521,48.1283669 C46.5794,48.1960288 46.6367803,48.258223 46.7023577,48.3108489 C46.7132873,48.3190504 46.7201183,48.332036 46.731731,48.3402374 C46.7494915,48.353223 46.7693014,48.3566403 46.787062,48.368259 C46.8581042,48.4154173 46.9318789,48.4536906 47.0104352,48.484446 C47.0418577,48.4960647 47.071231,48.5104173 47.1040197,48.5193022 C47.2099,48.5500576 47.3185127,48.5712446 47.4284915,48.5712446 L47.431907,48.5712446 C47.4366887,48.5712446 47.4414704,48.5685108 47.4462521,48.5685108 C47.466062,48.5698777 47.4858718,48.5712446 47.5056817,48.5712446 C47.8301535,48.5712446 48.1232028,48.4256691 48.3397451,48.2021799 L61.316569,39.5462446 L74.9027169,48.3826115 C75.0953507,48.507 75.3173577,48.5712446 75.5414141,48.5712446 C75.6643718,48.5712446 75.7893789,48.5514245 75.9102873,48.5111007 C76.247738,48.3990144 76.5168789,48.1386187 76.6398366,47.8037266 L93.0328366,3.28563309 C93.0485479,3.24530935 93.0608437,3.20430216 93.0717732,3.16261151 C93.0765549,3.14484173 93.077238,3.12707194 93.0813366,3.11066906 C93.0847521,3.09768345 93.0868014,3.08401439 93.0895338,3.06966187 L93.0895338,3.06966187 Z" id="Fill-26" fill="#18607F"></path>
            </g>
        </g>
    </g>
</svg>