<?xml version="1.0" encoding="UTF-8"?>
<svg width="12px" height="12px" viewBox="0 0 12 12" version="1.1" xmlns="http://www.w3.org/2000/svg" xmlns:xlink="http://www.w3.org/1999/xlink">
    <!-- Generator: Sketch 40.3 (33839) - http://www.bohemiancoding.com/sketch -->
    <title>ico-share</title>
    <desc>Created with Sketch.</desc>
    <defs>
        <polygon id="path-1" points="11.9814338 11.9710909 11.9814338 0 5.99071819 0 2.54751751e-06 0 2.54751751e-06 11.9710909 5.99071819 11.9710909"></polygon>
    </defs>
    <g id="Page-1" stroke="none" stroke-width="1" fill="none" fill-rule="evenodd">
        <g id="Artboard" transform="translate(-560.000000, -456.000000)">
            <g id="Group-11" transform="translate(494.000000, 456.000000)">
                <g id="Group-6" transform="translate(66.000000, 0.000000)">
                    <g id="ico-share">
                        <mask id="mask-2" fill="white">
                            <use xlink:href="#path-1"></use>
                        </mask>
                        <g id="Clip-2"></g>
                        <path d="M9.54083809,10.9520839 C8.7569924,10.9520839 8.11929779,10.3143893 8.11929779,9.53054357 C8.11929779,8.74672336 8.7569924,8.10900327 9.54083809,8.10900327 C10.3246838,8.10900327 10.9623784,8.74672336 10.9623784,9.53054357 C10.9623784,10.3143893 10.3246838,10.9520839 9.54083809,10.9520839 M2.43772214,7.40181239 C1.65543043,7.40181239 1.01900959,6.76536607 1.01900959,5.98309984 C1.01900959,5.20080813 1.65543043,4.56438729 2.43772214,4.56438729 C3.21998837,4.56438729 3.85643469,5.20080813 3.85643469,5.98309984 C3.85643469,6.76536607 3.21998837,7.40181239 2.43772214,7.40181239 M9.54086356,3.86206216 C8.75704335,3.86206216 8.11934874,3.22436755 8.11934874,2.44054734 C8.11934874,1.65670165 8.75704335,1.01900704 9.54086356,1.01900704 C10.3247347,1.01900704 10.9624293,1.65670165 10.9624293,2.44054734 C10.9624293,3.22436755 10.3247347,3.86206216 9.54086356,3.86206216 M9.54083809,7.08999623 C8.86391171,7.08999623 8.25057138,7.36708972 7.80804209,7.81369503 L4.84991561,6.33514129 C4.86662732,6.22014635 4.87544173,6.10265484 4.87544173,5.98309984 C4.87544173,5.86311176 4.86657637,5.74516169 4.84973728,5.62975915 L7.80335466,4.15255559 C8.2462406,4.60198864 8.86154252,4.8810692 9.54086356,4.8810692 C10.8866152,4.8810692 11.9814364,3.78627351 11.9814364,2.44054734 C11.9814364,1.09479569 10.8866152,0 9.54086356,0 C8.19516287,0 7.1003417,1.09479569 7.1003417,2.44054734 C7.1003417,2.55936356 7.10902874,2.67616724 7.12553665,2.79049983 L4.16876035,4.26849312 C3.7267151,3.82224446 3.11396069,3.54538024 2.43772214,3.54538024 C1.09354995,3.54538024 2.54751751e-06,4.63895313 2.54751751e-06,5.98309984 C2.54751751e-06,7.32727202 1.09354995,8.42081943 2.43772214,8.42081943 C3.11439376,8.42081943 3.72747935,8.14359856 4.16957555,7.69686588 L7.12627543,9.17483369 C7.10925801,9.29097502 7.10029075,9.40974029 7.10029075,9.53054357 C7.10029075,10.8762697 8.19511192,11.9710909 9.54083809,11.9710909 C10.8865643,11.9710909 11.9813854,10.8762697 11.9813854,9.53054357 C11.9813854,8.1848174 10.8865643,7.08999623 9.54083809,7.08999623" id="Fill-1" fill="#FFFFFF" mask="url(#mask-2)"></path>
                    </g>
                </g>
            </g>
        </g>
    </g>
</svg>