<?xml version="1.0" encoding="UTF-8"?>
<svg width="29px" height="25px" viewBox="0 0 29 25" version="1.1" xmlns="http://www.w3.org/2000/svg" xmlns:xlink="http://www.w3.org/1999/xlink">
    <!-- Generator: Sketch 40.3 (33839) - http://www.bohemiancoding.com/sketch -->
    <title>ic-twitter</title>
    <desc>Created with Sketch.</desc>
    <defs></defs>
    <g id="Page-1" stroke="none" stroke-width="1" fill="none" fill-rule="evenodd" stroke-linecap="square">
        <g id="Artboard-Copy-2" transform="translate(-957.000000, -161.000000)" stroke="#484848">
            <g id="Group-10" transform="translate(251.000000, 160.000000)">
                <g id="Group-4" transform="translate(629.000000, 2.000000)">
                    <g id="ic-twitter" transform="translate(77.000000, 0.000000)">
                        <g id="Capa_1">
                            <path d="M27.9332403,2.68456222 C26.9051401,3.14012125 25.8020036,3.44907617 24.6429548,3.58700818 C25.8264224,2.87831516 26.7323372,1.75422861 27.1616973,0.418908003 C26.0515774,1.07520329 24.8262099,1.55175793 23.520557,1.81009518 C22.4750214,0.69472638 20.9878478,0 19.3383234,0 C16.1737377,0 13.6078463,2.56589139 13.6078463,5.72874267 C13.6078463,6.17731838 13.658464,6.61544192 13.7562305,7.03439557 C8.99451806,6.79522822 4.77216455,4.51387294 1.94620149,1.04727001 C1.45221137,1.89211498 1.17118973,2.87653509 1.17118973,3.92736523 C1.17118973,5.91551229 2.18358878,7.6697409 3.71964564,8.69606094 C2.78054865,8.66465882 1.89731824,8.40632156 1.12408654,7.97691576 L1.12408654,8.04848339 C1.12408654,10.8238288 3.10000138,13.1401007 5.71997928,13.667273 C5.23995581,13.7964416 4.73377911,13.8680092 4.21012128,13.8680092 C3.84009653,13.8680092 3.48225836,13.8313582 3.13140351,13.761525 C3.86100085,16.0394114 5.97658212,17.6958735 8.4831381,17.741288 C6.52292433,19.2773448 4.05128495,20.1902429 1.36672273,20.1902429 C0.904180382,20.1902429 0.448575709,20.1623097 0,20.111692 C2.53622369,21.7402665 5.54722195,22.6898156 8.78337528,22.6898156 C19.324448,22.6898156 25.0863729,13.9587924 25.0863729,6.38681802 L25.0671573,5.64498845 C26.1929783,4.84199777 27.1669462,3.83311321 27.9332403,2.68456222 L27.9332403,2.68456222 Z" id="Shape"></path>
                        </g>
                    </g>
                </g>
            </g>
        </g>
    </g>
</svg>