<svg xmlns="http://www.w3.org/2000/svg" xlink="http://www.w3.org/1999/xlink">
  <symbol viewBox="0 0 12 11" id="ic-like">
    <path id="ic-like" fill="currentColor" d="M3.922,1.417c-0.694,0-1.386,0.267-1.911,0.792c-0.97,0.97-0.961,2.549,0.021,3.842
    C4.457,9.239,5.615,9.583,6,9.583s1.542-0.344,3.966-3.532c0.982-1.293,0.991-2.873,0.021-3.842
    c-0.51-0.51-1.188-0.791-1.909-0.791c-0.619,0-1.2,0.202-1.679,0.585L6,2.322l-0.4-0.318C5.107,1.61,4.514,1.417,3.922,1.417
     M6,10.865c-1.308,0-2.893-1.283-4.987-4.039C-0.368,5.01-0.33,2.738,1.106,1.302C2.422-0.015,4.45-0.23,5.999,0.721
    c0.622-0.383,1.333-0.584,2.08-0.584c1.063,0,2.063,0.414,2.815,1.166c1.436,1.436,1.474,3.708,0.092,5.524
    C8.893,9.582,7.309,10.865,6,10.865"/>
  </symbol>

  <symbol viewBox="248.534 -222.69 11.982 11.971" id="ic-share">
    <path fill="currentColor" d="M258.075-215.601c-0.678,0-1.291,0.277-1.732,0.725l-2.957-1.48c0.017-0.115,0.024-0.231,0.024-0.352
  c0-0.119-0.009-0.238-0.026-0.354l2.953-1.478c0.443,0.45,1.06,0.729,1.738,0.729c1.346,0,2.439-1.096,2.439-2.44
  s-1.094-2.44-2.439-2.44s-2.439,1.096-2.439,2.44c0,0.119,0.008,0.235,0.023,0.351l-2.956,1.478
  c-0.442-0.446-1.055-0.724-1.731-0.724c-1.344,0-2.438,1.095-2.438,2.438c0,1.345,1.094,2.438,2.438,2.438
  c0.678,0,1.291-0.277,1.732-0.725l2.958,1.479c-0.019,0.115-0.026,0.234-0.026,0.355c0,1.346,1.096,2.439,2.44,2.439
  s2.44-1.094,2.44-2.439C260.515-214.505,259.421-215.601,258.075-215.601z M258.075-221.672c0.783,0,1.422,0.638,1.422,1.421
  c0,0.785-0.639,1.422-1.422,1.422c-0.784,0-1.422-0.638-1.422-1.422C256.653-221.034,257.291-221.672,258.075-221.672z
   M250.972-215.288c-0.781,0-1.418-0.637-1.418-1.42c0-0.781,0.637-1.418,1.418-1.418c0.783,0,1.42,0.637,1.42,1.418
  C252.39-215.925,251.754-215.288,250.972-215.288z M258.075-211.739c-0.784,0-1.422-0.637-1.422-1.422
  c0-0.783,0.638-1.42,1.422-1.42c0.783,0,1.422,0.637,1.422,1.42C259.497-212.376,258.858-211.739,258.075-211.739z"/>

  </symbol>
    </svg>